<svg width="207" height="91" viewBox="0 0 207 91" fill="none" xmlns="http://www.w3.org/2000/svg">
<path d="M140.951 32.298V26.4246L125.533 19.6072L140.951 13.1044V7.28345L119.45 17.3522V22.0719L140.951 32.298Z" fill="#eedfbb"/>
<path d="M10.3834 62.593C11.5721 64.6557 13.8445 65.6871 17.2008 65.6871C20.557 65.6871 22.812 64.6732 23.9657 62.6455C25.1544 60.6177 25.7487 57.2265 25.7487 52.4718C25.7487 47.6822 25.1369 44.2036 23.9133 42.036C22.7246 39.8684 20.4871 38.7846 17.2008 38.7846C13.9144 38.7846 11.6595 39.8684 10.4358 42.036C9.2122 44.2036 8.60039 47.6647 8.60039 52.4194C8.60039 57.1391 9.19472 60.5303 10.3834 62.593ZM28.5281 66.3688C26.3955 69.3055 22.6197 70.7739 17.2008 70.7739C11.7818 70.7739 7.98857 69.3055 5.82099 66.3688C3.65342 63.3971 2.56963 58.7473 2.56963 52.4194C2.56963 46.0915 3.65342 41.3892 5.82099 38.3127C8.02353 35.2361 11.8168 33.6978 17.2008 33.6978C22.5848 33.6978 26.3605 35.2361 28.5281 38.3127C30.6957 41.3543 31.7795 46.0565 31.7795 52.4194C31.7795 58.7823 30.6957 63.4321 28.5281 66.3688ZM41.0947 70.197H35.3786V43.9763H41.0422V45.602C43.5944 44.1337 46.0067 43.3995 48.2792 43.3995C51.7752 43.3995 54.1526 44.3959 55.4112 46.3886C56.7047 48.3464 57.3515 51.5978 57.3515 56.1427V70.197H51.6878V56.3001C51.6878 53.4682 51.3732 51.458 50.7439 50.2693C50.1496 49.0806 48.9085 48.4863 47.0206 48.4863C45.2376 48.4863 43.5245 48.8359 41.8813 49.5351L41.0947 49.8498V70.197ZM63.2396 74.4448H85.6845V79.3218H63.2396V74.4448ZM92.4694 70.197V34.2747H115.124V39.3615H98.2904V49.5351H111.978V54.5695H98.2904V65.0578H115.124V70.197H92.4694ZM115.556 43.9763H121.534L126.569 65.32H128.247L133.491 43.9763H139.312L132.494 70.197H122.321L115.556 43.9763ZM159.543 65.4773L161.011 65.32L161.116 69.5677C157.13 70.3718 153.599 70.7739 150.523 70.7739C146.642 70.7739 143.845 69.7076 142.132 67.575C140.454 65.4423 139.615 62.0336 139.615 57.3489C139.615 48.0493 143.408 43.3995 150.995 43.3995C158.336 43.3995 162.007 47.4025 162.007 55.4086L161.64 59.499H145.383C145.418 61.6666 145.89 63.2573 146.799 64.2711C147.708 65.285 149.404 65.7919 151.886 65.7919C154.368 65.7919 156.921 65.6871 159.543 65.4773ZM156.396 55.0939C156.396 52.5068 155.977 50.7063 155.137 49.6924C154.333 48.6436 152.952 48.1192 150.995 48.1192C149.037 48.1192 147.603 48.6611 146.694 49.7449C145.82 50.8287 145.366 52.6117 145.331 55.0939H156.396ZM170.723 70.197H165.007V43.9763H170.67V45.602C173.222 44.1337 175.635 43.3995 177.907 43.3995C181.403 43.3995 183.781 44.3959 185.039 46.3886C186.333 48.3464 186.98 51.5978 186.98 56.1427V70.197H181.316V56.3001C181.316 53.4682 181.001 51.458 180.372 50.2693C179.778 49.0806 178.536 48.4863 176.649 48.4863C174.866 48.4863 173.153 48.8359 171.509 49.5351L170.723 49.8498V70.197ZM205.244 48.8534H198.007V60.3905C198.007 62.5231 198.164 63.939 198.479 64.6382C198.794 65.3375 199.598 65.6871 200.891 65.6871L205.191 65.5297L205.454 70.0921C203.111 70.5466 201.328 70.7739 200.105 70.7739C197.133 70.7739 195.088 70.0921 193.969 68.7287C192.885 67.3652 192.343 64.7956 192.343 61.0198V48.8534H188.987V43.9763H192.343V36.3723H198.007V43.9763H205.244V48.8534Z" fill="#eedfbb"/>
<path d="M150.653 38.7542L165.651 1.83545L160.617 0L145.671 36.9712L150.653 38.7542Z" fill="#eedfbb"/>
<path d="M168.978 32.298L190.479 22.0719V17.3522L168.978 7.28345V13.1044L184.395 19.6072L168.978 26.4246V32.298Z" fill="#eedfbb"/>
</svg>
